<svg width="87" height="76" viewBox="0 0 87 76" fill="none" xmlns="http://www.w3.org/2000/svg">
<g clip-path="url(#clip0_158_358)">
<path d="M17.0947 43.379C16.4812 42.8791 15.9746 42.2525 15.6246 41.5129C15.2747 40.7731 15.0363 39.9906 14.9405 39.1372C14.7797 37.6962 14.952 36.393 15.4717 35.1852C15.9757 33.9916 16.7618 32.8941 17.8468 31.9066C19.428 30.4676 21.5267 29.2631 24.1443 28.3212C26.7621 27.3791 29.6694 26.6732 32.8511 26.2173C36.0653 25.7613 39.3399 25.5149 42.7073 25.4778C46.0764 25.4688 49.3756 25.6702 52.605 26.0822C55.8189 26.5082 58.7848 27.16 61.4546 28.0518C64.1415 28.9575 66.3711 30.1324 68.1435 31.5764C69.3023 32.5206 70.2241 33.5924 70.8746 34.7641C71.5421 35.9496 71.9074 37.2633 71.938 38.7052C72.0195 40.4829 71.4627 41.9008 70.3157 42.9448C69.8816 43.3398 69.3453 43.6515 68.7533 43.8376C68.1457 44.0378 67.4825 44.1123 66.7603 44.0052L57.5913 42.7378C56.8862 42.6447 56.2927 42.5087 55.7783 42.3301C55.2808 42.1656 54.8455 41.9445 54.5217 41.6807C54.1127 41.3474 53.8122 40.9154 53.6372 40.3986C53.4467 39.8959 53.3322 39.2946 53.2953 38.6228L53.127 36.4537C53.1101 36.1458 52.966 35.8947 52.6934 35.6726C52.557 35.5615 52.4222 35.4784 52.2549 35.3956C52.0721 35.3268 51.9233 35.2858 51.79 35.2307C50.9486 35.0265 49.7353 34.8667 48.167 34.7655C46.5833 34.6783 44.936 34.6195 43.2267 34.6172C41.4864 34.6431 39.8453 34.6963 38.2567 34.8193C36.7008 34.942 35.5231 35.1319 34.6892 35.3617C34.5776 35.4046 34.4336 35.4474 34.2739 35.5045C34.0988 35.5757 33.9576 35.6748 33.8181 35.8018C33.5547 36.0416 33.4554 36.3083 33.4724 36.6161L33.5723 38.7298C33.6109 39.4296 33.5627 40.0319 33.4107 40.523C33.2928 41.0418 33.0554 41.4636 32.6679 41.8163C32.3733 42.0844 31.9953 42.3109 31.5009 42.4963C31.0065 42.6817 30.4284 42.8256 29.751 42.9424L20.6153 44.3489C19.9055 44.4659 19.2686 44.4282 18.672 44.2363C18.091 44.0302 17.5719 43.7678 17.0947 43.379Z" stroke="white" stroke-width="2" stroke-miterlimit="10"/>
</g>
<defs>
<clipPath id="clip0_158_358">
<rect width="55.809" height="58.6197" fill="white" transform="matrix(-0.739572 0.673077 -0.775264 -0.631637 86.7205 37.813)"/>
</clipPath>
</defs>
</svg>
