<svg width="53" height="45" viewBox="0 0 53 45" fill="none" xmlns="http://www.w3.org/2000/svg">
<path d="M46.375 8.10662V36.8934C46.375 37.5515 46.0671 38.1828 45.5189 38.6482C44.9708 39.1135 44.2274 39.375 43.4522 39.375H9.54779C8.77262 39.375 8.0292 39.1135 7.48107 38.6482C6.93294 38.1828 6.625 37.5515 6.625 36.8934V8.10662C6.625 7.44845 6.93294 6.81724 7.48107 6.35185C8.0292 5.88646 8.77262 5.625 9.54779 5.625H43.4522C44.2274 5.625 44.9708 5.88646 45.5189 6.35185C46.0671 6.81724 46.375 7.44845 46.375 8.10662V8.10662ZM18.3162 18.5294H12.4706V34.4118H18.3162V18.5294ZM18.8423 13.0699C18.8454 12.6944 18.7613 12.3222 18.5949 11.9743C18.4286 11.6265 18.1831 11.3098 17.8726 11.0425C17.5622 10.7752 17.1927 10.5624 16.7854 10.4164C16.378 10.2703 15.9408 10.1938 15.4986 10.1912H15.3934C14.4942 10.1912 13.6318 10.4945 12.996 11.0343C12.3601 11.5742 12.0029 12.3064 12.0029 13.0699C12.0029 13.8333 12.3601 14.5655 12.996 15.1054C13.6318 15.6452 14.4942 15.9485 15.3934 15.9485V15.9485C15.8356 15.9578 16.2756 15.8929 16.6883 15.7577C17.101 15.6225 17.4782 15.4196 17.7985 15.1606C18.1188 14.9016 18.3758 14.5915 18.5549 14.2481C18.734 13.9047 18.8317 13.5347 18.8423 13.1592V13.0699ZM40.5294 24.7632C40.5294 19.9886 36.9519 18.1324 33.3978 18.1324C32.2341 18.0829 31.0755 18.2933 30.0375 18.7427C28.9995 19.1921 28.1184 19.8647 27.4821 20.6934H27.3184V18.5294H21.8235V34.4118H27.6691V25.9643C27.5846 25.0992 27.9056 24.2407 28.5623 23.5753C29.219 22.9099 30.1584 22.4914 31.1765 22.4107H31.3986C33.2575 22.4107 34.6371 23.4033 34.6371 25.9048V34.4118H40.4826L40.5294 24.7632Z" fill="white"/>
</svg>
