<svg width="540" height="316" viewBox="0 0 540 316" fill="none" xmlns="http://www.w3.org/2000/svg">
<g filter="url(#filter0_d_98_6)">
<path d="M4 0H536V308H4V0Z" fill="#64040B"/>
<path d="M97.3377 177.986C99.7867 184.239 102.266 189.058 104.776 192.443C107.245 195.726 110.423 198.55 114.308 200.915L117.389 202.888L116.356 206.142L82.7109 219.52L78.8199 215.026L81.992 212.698C85.4824 210.125 87.512 207.601 88.0806 205.124C88.6492 202.647 88.0302 199.102 86.2236 194.489L56.474 118.533C55.9521 117.2 55.3347 116.38 54.6219 116.071C53.8689 115.659 52.8779 115.698 51.6489 116.187L42.7384 119.73L38.6667 114.774C42.3882 111.28 47.5726 107.441 54.22 103.258C60.9297 98.9316 67.6132 95.4448 74.2704 92.7977C89.4284 86.7704 102.04 85.7246 112.104 89.6603C122.128 93.4934 129.247 100.792 133.463 111.555C136.072 118.217 137.11 124.795 136.575 131.286C135.999 137.675 133.589 143.609 129.343 149.089C125.057 154.466 118.817 158.783 110.624 162.041C106.834 163.548 103.427 164.369 100.403 164.506C97.4812 164.601 95.679 163.778 94.9965 162.035C94.595 161.01 94.4586 160.057 94.5872 159.177C94.7159 158.296 95.1899 157.693 96.0092 157.368C96.4189 157.205 97.3186 157.084 98.7082 157.005C100.16 156.783 101.91 156.265 103.959 155.451C111.64 152.396 116.668 147.554 119.042 140.923C121.417 134.292 120.958 126.774 117.666 118.369C114.414 110.066 109.44 104.166 102.743 100.668C96.1491 97.1297 88.7041 97.0098 80.4082 100.309C72.6243 103.404 69.6558 107.309 71.5026 112.024L97.3377 177.986Z" fill="#FADC71"/>
<path d="M173.88 183.269C173.324 183.49 172.92 183.758 172.669 184.072C172.482 184.414 172.226 184.65 171.902 184.779C171.717 184.852 171.449 184.852 171.099 184.777C170.794 184.683 170.333 184.599 169.715 184.523C169.604 184.514 169.489 184.426 169.37 184.259C169.28 184.027 169.134 183.79 168.932 183.549C168.73 183.308 168.525 182.988 168.315 182.589C168.297 182.543 168.298 182.409 168.318 182.187C168.366 181.9 168.414 181.613 168.462 181.326C168.492 180.992 168.532 180.682 168.58 180.395C168.628 180.108 168.68 179.9 168.736 179.771L169.757 178.481L171.285 177.874C172.35 177.45 173.272 177.003 174.051 176.533C174.858 175.997 175.344 175.188 175.508 174.105C175.076 172.456 174.625 170.895 174.155 169.421C173.685 167.948 173.363 166.442 173.189 164.904L172.743 161.306L170.211 154.841L168.108 148.446L166.501 144.345C166.465 144.252 166.328 144.039 166.09 143.705C165.834 143.325 165.569 142.921 165.295 142.495C165.003 142.022 164.728 141.595 164.472 141.215C164.198 140.788 164.016 140.459 163.925 140.227L161.339 133.623C160.954 133.187 160.408 132.681 159.7 132.105C158.993 131.53 158.368 131.162 157.824 131.004L155.399 131.165C154.394 130.922 153.44 130.605 152.538 130.213C151.681 129.804 150.878 129.186 150.126 128.36C149.926 127.851 149.888 127.411 150.01 127.041C150.133 126.67 150.352 126.342 150.668 126.056C150.984 125.77 151.332 125.497 151.713 125.239C152.093 124.98 152.451 124.731 152.785 124.491L156.89 119.806C157.234 119.455 157.527 119.178 157.769 118.975C158.038 118.707 158.285 118.448 158.508 118.198C158.731 117.949 158.923 117.685 159.082 117.408C159.287 117.112 159.479 116.714 159.658 116.215L161.618 115.275C161.849 115.183 162.205 115.068 162.687 114.93C163.214 114.774 163.524 114.677 163.617 114.641C163.756 114.585 163.996 114.516 164.339 114.434C164.681 114.351 165.055 114.283 165.462 114.228C165.869 114.174 166.253 114.128 166.613 114.092C166.973 114.056 167.232 114.033 167.389 114.024C167.879 114.044 168.288 114.337 168.616 114.902C168.973 115.403 169.242 115.885 169.423 116.349L170.295 118.573L170.462 120.435C171.41 123.539 172.456 126.551 173.6 129.471C174.743 132.391 175.877 135.421 177 138.563L177.633 141.204C177.605 141.269 177.622 141.449 177.685 141.746C177.794 142.024 177.921 142.348 178.066 142.719C178.211 143.09 178.356 143.461 178.502 143.831C178.629 144.156 178.729 144.411 178.801 144.596C178.928 144.92 179.073 145.291 179.237 145.708C179.4 146.125 179.554 146.519 179.7 146.89C179.845 147.261 179.972 147.585 180.081 147.863C180.218 148.076 180.31 148.174 180.356 148.156C180.41 148.295 180.584 148.601 180.876 149.073C181.15 149.5 181.328 149.751 181.411 149.825L181.983 151.285C182.037 151.424 182.159 151.804 182.349 152.425C182.539 153.045 182.765 153.759 183.027 154.565C183.271 155.325 183.515 156.085 183.759 156.845C184.032 157.54 184.231 158.05 184.358 158.374C184.522 158.791 184.808 159.454 185.217 160.363C185.655 161.206 186.12 162.12 186.611 163.102C187.15 164.067 187.647 164.994 188.102 165.884C188.54 166.728 188.831 167.335 188.976 167.706C189.176 168.215 189.594 168.531 190.23 168.653C190.895 168.71 191.408 168.721 191.768 168.684C191.907 168.629 192.194 168.542 192.629 168.423C193.11 168.285 193.614 168.138 194.142 167.982C194.669 167.825 195.15 167.688 195.585 167.568C196.048 167.384 196.373 167.255 196.558 167.182C197.027 167.423 197.436 167.716 197.785 168.06C198.179 168.385 198.504 168.872 198.758 169.52C199.012 170.169 199.188 170.822 199.285 171.48C199.428 172.119 199.337 172.638 199.011 173.035C198.637 173.72 198.112 174.223 197.435 174.546C196.823 174.896 196.147 175.219 195.406 175.513L194.156 176.01L192.216 175.978L183.673 179.375C183.627 179.393 183.308 179.467 182.716 179.595C182.106 179.677 181.708 179.755 181.523 179.828L179.578 180.602L173.88 183.269ZM139.818 90.36L141.127 87.3488L142.711 84.63L142.834 82.894C143.227 82.256 143.761 81.7757 144.437 81.4532C145.096 81.0843 145.703 80.7894 146.258 80.5685L146.953 80.2923C147.017 80.3202 147.183 80.3345 147.451 80.3351C147.719 80.3357 147.987 80.3364 148.255 80.337C148.523 80.3376 148.767 80.3474 148.989 80.3665C149.238 80.3208 149.41 80.2795 149.502 80.2427C149.724 80.2617 150.038 80.2439 150.445 80.1893C150.879 80.07 151.323 79.9738 151.776 79.9007C152.211 79.7814 152.623 79.6712 153.012 79.5703C153.382 79.423 153.637 79.3217 153.776 79.2665C153.979 79.2392 154.296 79.4344 154.728 79.8521C155.159 80.2698 155.571 80.7755 155.964 81.369C156.385 81.8979 156.76 82.4451 157.089 83.0107C157.445 83.5116 157.66 83.8547 157.733 84.0401C158.186 85.1987 158.474 86.343 158.595 87.4731C158.745 88.5383 158.511 89.649 157.894 90.8051C157.865 90.8699 157.754 90.9946 157.559 91.1794C157.391 91.2994 157.21 91.4517 157.015 91.6365C156.802 91.7749 156.597 91.9365 156.402 92.1212C156.235 92.2412 156.152 92.3012 156.152 92.3012C156.142 92.4123 156.089 92.6205 155.995 92.9259C155.882 93.1849 155.756 93.4763 155.615 93.8001C155.456 94.0775 155.297 94.355 155.138 94.6324C154.961 94.8635 154.858 95.0114 154.83 95.0762C154.679 95.5111 154.335 95.8621 153.798 96.1294C153.307 96.3783 152.83 96.5948 152.366 96.7789L149.658 97.856C149.148 98.0586 148.699 98.2103 148.311 98.3113C147.904 98.3659 147.277 98.2672 146.429 98.0152C145.188 97.1696 144.029 96.3983 142.954 95.7012C141.878 95.0042 141.05 93.9142 140.469 92.4312L139.818 90.36Z" fill="#FADC71"/>
<path d="M234.238 159.269C233.729 159.471 233.192 159.604 232.628 159.668C232.111 159.713 231.593 159.758 231.076 159.803C230.54 159.802 229.99 159.833 229.427 159.897C228.909 159.942 228.373 160.075 227.817 160.296C226.613 160.774 225.399 161.364 224.175 162.065C222.979 162.701 221.687 163.296 220.298 163.848C219.649 164.106 219.071 164.336 218.561 164.538C218.034 164.695 217.506 164.851 216.979 165.007C216.479 165.098 215.966 165.222 215.438 165.378C214.893 165.488 214.278 165.626 213.593 165.791L211.706 166.3C210.93 166.234 210.114 165.996 209.258 165.586C208.384 165.13 207.784 164.485 207.457 163.651L207.076 162.678L209.99 155.976L210.923 151.186C210.981 150.788 211.071 150.538 211.192 150.436C211.341 150.27 211.484 150.159 211.623 150.104C211.762 150.049 211.915 149.961 212.082 149.841C212.231 149.675 212.39 149.397 212.559 149.009C212.806 148 212.914 147.046 212.884 146.148C212.881 145.185 212.984 144.287 213.193 143.454C213.414 142.241 213.528 141.098 213.535 140.024C213.525 138.903 213.357 137.792 213.032 136.689C213.77 135.431 214.434 134.257 215.023 133.166C215.641 132.01 216.175 130.913 216.625 129.877C217.03 128.86 217.373 127.893 217.657 126.977C217.986 126.042 218.288 125.172 218.561 124.367C218.401 122.182 218.388 120.098 218.521 118.117C218.507 117.533 218.687 116.899 219.061 116.215C219.417 115.484 219.634 114.809 219.712 114.188C219.819 113.503 219.781 112.929 219.599 112.466C219.4 111.956 219.418 111.386 219.653 110.757L221.564 108.873C221.666 108.725 221.696 108.392 221.654 107.873C221.639 107.289 221.616 106.683 221.583 106.053C221.532 105.377 221.444 104.742 221.319 104.149C221.222 103.492 221.151 103.038 221.107 102.788C221.397 102.298 221.457 101.631 221.287 100.788C221.164 99.9264 221.02 99.2871 220.857 98.87C220.73 98.5456 220.482 98.3228 220.113 98.2015C219.727 98.0339 219.289 97.9403 218.799 97.9206C218.356 97.8826 217.908 97.9 217.455 97.9731C217.048 98.0277 216.706 98.1102 216.428 98.2207C215.762 98.4321 215.095 98.6435 214.429 98.855C213.809 99.048 213.244 99.2457 212.735 99.4483L209.066 101.148C208.684 101.675 208.21 102.105 207.644 102.437C207.125 102.75 206.541 103.036 205.892 103.294L200.753 105.338C199.521 105.881 198.416 106.749 197.438 107.941C196.46 109.133 195.582 110.446 194.806 111.88C194.058 113.249 193.365 114.622 192.727 116C192.136 117.36 191.597 118.512 191.11 119.455L190.304 119.856C189.887 120.022 189.44 119.905 188.963 119.506C188.485 119.107 188.132 118.684 187.905 118.239L189.143 103.366C189.153 103.255 189.256 103.107 189.451 102.922C189.674 102.672 189.857 102.386 189.997 102.062L190.622 101.813C191.204 101.796 191.606 101.797 191.828 101.816C192.077 101.771 192.272 101.72 192.411 101.665C192.596 101.591 192.79 101.541 192.993 101.513C193.225 101.421 193.599 101.353 194.117 101.308C195.051 101.097 195.907 100.891 196.684 100.689C197.443 100.44 198.179 100.201 198.892 99.9715C199.604 99.7417 200.308 99.4886 201.003 99.2125C201.697 98.9363 202.438 98.6417 203.225 98.3287C204.383 97.8684 205.375 97.2595 206.203 96.5021C207.058 95.68 207.995 95.0663 209.014 94.6613C215.394 93.4631 221.668 91.7184 227.835 89.427C228.993 88.9667 230.008 88.3486 230.882 87.5728C231.801 86.7786 232.794 86.1697 233.859 85.7462C234.229 85.5989 234.71 85.4612 235.302 85.3329C235.923 85.1399 236.556 85.0488 237.202 85.0595C237.83 85.024 238.426 85.1087 238.988 85.3137C239.549 85.5188 239.939 85.8994 240.157 86.4555L240.209 86.9973C239.717 88.7464 239.325 90.616 239.034 92.6063C238.772 94.5318 238.367 96.2996 237.82 97.9096C237.142 99.7323 236.668 101.528 236.398 103.296C236.109 105.017 236.045 106.837 236.207 108.754L233.1 115.373L233.145 118.97L231.19 123.202C230.711 124.303 230.372 125.349 230.171 126.339C230.016 127.311 229.908 128.265 229.846 129.2C229.784 130.135 229.732 131.093 229.688 132.075C229.69 133.038 229.609 134.061 229.445 135.144L228.245 138.433C228.246 139.665 228.053 140.813 227.667 141.877C227.281 142.941 226.96 143.898 226.705 144.75C226.522 145.786 226.441 146.81 226.462 147.819C226.529 148.81 226.536 149.852 226.482 150.944C226.472 151.055 226.476 151.134 226.494 151.18L226.603 151.459C227.057 152.617 227.806 153.23 228.849 153.297C229.874 153.318 230.905 153.149 231.942 152.791C232.58 152.644 233.288 152.47 234.065 152.268C234.842 152.066 235.619 151.864 236.396 151.662C237.155 151.414 237.891 151.175 238.604 150.945C239.363 150.697 240.043 150.453 240.645 150.213C243.979 148.888 246.789 147.181 249.076 145.094C251.344 142.96 253.232 140.334 254.741 137.217C255.079 136.44 255.337 135.802 255.516 135.302C255.723 134.738 255.925 134.229 256.122 133.776C256.319 133.322 256.572 132.874 256.88 132.43C257.169 131.94 257.607 131.418 258.193 130.864C258.424 130.772 258.826 130.772 259.398 130.866C259.97 130.96 260.324 131.114 260.461 131.327C260.607 131.698 260.719 132.189 260.797 132.8C260.876 133.412 260.942 133.921 260.995 134.329C261.628 136.219 262.164 138.202 262.602 140.278C263.087 142.335 263.525 144.41 263.917 146.504C263.678 147.67 263.053 148.534 262.043 149.097C261.032 149.659 259.855 150.208 258.513 150.741C257.123 151.294 255.689 151.73 254.209 152.051C252.747 152.418 251.3 152.753 249.866 153.055C248.432 153.357 247.008 153.682 245.592 154.031C244.159 154.333 242.771 154.751 241.428 155.285L234.238 159.269Z" fill="#FADC71"/>
<path d="M300.084 133.087C299.574 133.289 299.038 133.422 298.474 133.486C297.956 133.531 297.439 133.576 296.921 133.621C296.386 133.62 295.836 133.651 295.272 133.715C294.755 133.76 294.218 133.893 293.662 134.114C292.459 134.592 291.245 135.182 290.021 135.883C288.825 136.519 287.532 137.113 286.143 137.666C285.495 137.924 284.916 138.154 284.407 138.356C283.879 138.512 283.352 138.669 282.824 138.825C282.325 138.916 281.812 139.04 281.284 139.196C280.738 139.306 280.123 139.444 279.439 139.609L277.551 140.118C276.776 140.052 275.96 139.814 275.104 139.404C274.23 138.948 273.629 138.303 273.303 137.469L272.921 136.496L275.835 129.794L276.769 125.004C276.827 124.606 276.916 124.356 277.037 124.254C277.186 124.088 277.33 123.977 277.469 123.922C277.608 123.867 277.761 123.779 277.928 123.659C278.077 123.493 278.236 123.215 278.405 122.827C278.652 121.818 278.76 120.864 278.729 119.966C278.727 119.003 278.83 118.105 279.039 117.272C279.259 116.059 279.374 114.916 279.381 113.842C279.37 112.721 279.202 111.61 278.878 110.507C279.616 109.249 280.28 108.075 280.869 106.984C281.487 105.827 282.021 104.731 282.471 103.695C282.875 102.678 283.219 101.711 283.502 100.795C283.832 99.8601 284.134 98.9903 284.407 98.1853C284.247 95.9995 284.233 93.9159 284.367 91.9345C284.353 91.3511 284.532 90.7172 284.907 90.0328C285.263 89.3021 285.48 88.6266 285.558 88.0064C285.664 87.3214 285.626 86.7471 285.445 86.2837C285.245 85.7739 285.263 85.2044 285.498 84.5753L287.409 82.6907C287.512 82.5428 287.542 82.2095 287.499 81.6908C287.485 81.1073 287.461 80.5007 287.429 79.871C287.378 79.1949 287.29 78.5603 287.165 77.9674C287.068 77.3097 286.997 76.8557 286.953 76.6056C287.242 76.1155 287.302 75.4489 287.133 74.6058C287.009 73.7443 286.866 73.105 286.702 72.6879C286.575 72.3635 286.328 72.1407 285.959 72.0195C285.572 71.8519 285.134 71.7582 284.645 71.7386C284.202 71.7005 283.754 71.718 283.301 71.791C282.894 71.8456 282.552 71.9282 282.274 72.0386C281.607 72.2501 280.941 72.4615 280.275 72.6729C279.655 72.8659 279.09 73.0637 278.58 73.2662L274.911 74.9662C274.529 75.4931 274.055 75.9226 273.489 76.2546C272.97 76.5683 272.386 76.854 271.738 77.1117L266.598 79.1555C265.366 79.699 264.261 80.5668 263.283 81.7591C262.305 82.9514 261.428 84.2643 260.652 85.6978C259.903 87.0666 259.21 88.4401 258.573 89.8184C257.982 91.1783 257.443 92.3299 256.956 93.2733L256.15 93.6743C255.733 93.84 255.286 93.7232 254.808 93.3239C254.331 92.9245 253.978 92.5024 253.75 92.0574L254.989 77.1837C254.999 77.0726 255.101 76.9246 255.297 76.7399C255.52 76.4904 255.702 76.2037 255.843 75.88L256.468 75.6314C257.05 75.6142 257.452 75.6152 257.673 75.6342C257.923 75.5885 258.117 75.538 258.256 75.4828C258.441 75.4091 258.636 75.3587 258.839 75.3314C259.071 75.2393 259.445 75.1707 259.963 75.1256C260.897 74.9148 261.752 74.7085 262.53 74.5066C263.289 74.2583 264.025 74.0193 264.737 73.7894C265.45 73.5596 266.154 73.3066 266.848 73.0304C267.543 72.7542 268.284 72.4596 269.071 72.1466C270.229 71.6863 271.221 71.0775 272.048 70.3201C272.903 69.4979 273.84 68.8843 274.859 68.4792C281.24 67.2811 287.514 65.5363 293.68 63.2449C294.838 62.7846 295.854 62.1666 296.727 61.3907C297.647 60.5965 298.639 59.9877 299.704 59.5642C300.075 59.4169 300.556 59.2791 301.148 59.1509C301.768 58.9578 302.401 58.8667 303.048 58.8775C303.676 58.8419 304.271 58.9267 304.833 59.1317C305.395 59.3367 305.785 59.7173 306.003 60.2734L306.054 60.8153C305.562 62.5643 305.171 64.434 304.88 66.4243C304.617 68.3498 304.212 70.1175 303.666 71.7275C302.988 73.5502 302.514 75.3456 302.243 77.1137C301.954 78.8354 301.891 80.6549 302.053 82.5722L298.946 89.1906L298.99 92.7883L297.035 97.0203C296.557 98.1211 296.217 99.1668 296.016 100.157C295.862 101.129 295.754 102.083 295.692 103.018C295.63 103.953 295.577 104.911 295.533 105.893C295.536 106.856 295.455 107.879 295.291 108.962L294.09 112.251C294.091 113.483 293.898 114.631 293.512 115.695C293.126 116.759 292.806 117.716 292.551 118.568C292.368 119.604 292.287 120.627 292.308 121.637C292.375 122.628 292.382 123.67 292.328 124.762C292.318 124.873 292.322 124.952 292.34 124.998L292.449 125.276C292.903 126.435 293.651 127.048 294.694 127.115C295.719 127.136 296.75 126.967 297.787 126.609C298.425 126.462 299.133 126.288 299.91 126.086C300.687 125.884 301.465 125.682 302.242 125.48C303.001 125.232 303.737 124.993 304.449 124.763C305.208 124.515 305.889 124.271 306.491 124.031C309.825 122.706 312.635 120.999 314.921 118.912C317.19 116.778 319.078 114.152 320.586 111.035C320.924 110.258 321.183 109.62 321.362 109.12C321.569 108.556 321.771 108.047 321.968 107.594C322.165 107.14 322.417 106.692 322.725 106.248C323.015 105.758 323.452 105.236 324.038 104.682C324.27 104.589 324.671 104.59 325.243 104.684C325.815 104.778 326.17 104.932 326.307 105.145C326.452 105.516 326.564 106.007 326.643 106.618C326.722 107.23 326.788 107.739 326.84 108.147C327.474 110.037 328.01 112.02 328.448 114.096C328.932 116.153 329.371 118.228 329.763 120.322C329.524 121.488 328.899 122.352 327.888 122.915C326.878 123.477 325.701 124.025 324.358 124.559C322.969 125.112 321.534 125.548 320.055 125.869C318.593 126.236 317.145 126.571 315.712 126.873C314.278 127.175 312.853 127.5 311.438 127.849C310.004 128.151 308.616 128.569 307.273 129.103L300.084 133.087Z" fill="#FADC71"/>
<path d="M366.814 97.0725C366.666 97.2388 366.473 97.6366 366.238 98.2657C366.031 98.8301 365.812 99.1583 365.58 99.2504L363.458 101.621C363.384 101.704 363.267 101.884 363.108 102.162C362.977 102.374 362.818 102.652 362.631 102.994C362.472 103.271 362.337 103.54 362.224 103.799C362.093 104.011 362.005 104.127 361.959 104.145C361.884 104.228 361.717 104.348 361.457 104.505C361.244 104.644 360.984 104.8 360.678 104.976C360.419 105.132 360.159 105.289 359.899 105.446C359.668 105.538 359.482 105.612 359.344 105.667C359.009 105.907 358.726 106.207 358.492 106.568C358.305 106.91 358.113 107.308 357.916 107.761C357.747 108.15 357.541 108.58 357.298 109.052C357.036 109.477 356.719 109.897 356.347 110.313L349.748 112.937C349.517 113.029 349.175 113.112 348.722 113.185C348.315 113.239 347.853 113.289 347.335 113.334C346.864 113.361 346.384 113.364 345.894 113.345C345.405 113.325 345.017 113.292 344.731 113.245C344.695 113.152 344.474 112.999 344.07 112.785C343.693 112.506 343.436 112.26 343.299 112.047C343.17 111.991 343.055 111.903 342.954 111.782C342.761 111.698 342.637 111.587 342.583 111.448L339.999 110.386C339.339 109.792 338.651 108.994 337.938 107.992C337.253 106.926 336.765 106.022 336.474 105.28L336.389 103.627L335.331 102.36L335.004 101.526C334.913 101.295 334.842 100.975 334.789 100.567C334.765 100.095 334.749 99.6459 334.743 99.2199C334.718 98.7476 334.712 98.3216 334.724 97.9419C334.718 97.5159 334.734 97.215 334.772 97.0392C334.8 96.9744 334.899 96.7478 335.067 96.3592C335.265 95.9059 335.476 95.4203 335.701 94.9022C335.908 94.3378 336.087 93.8382 336.238 93.4033C336.435 92.95 336.552 92.6355 336.591 92.4596C336.637 92.4412 336.735 92.2145 336.886 91.7797C337.083 91.3264 337.164 91.0534 337.127 90.9607L337.157 90.6274C337.167 90.5163 337.154 90.4144 337.118 90.3217C337.705 89.4989 338.261 88.6622 338.784 87.8115C339.289 86.9144 339.922 86.0732 340.685 85.2879C340.713 85.2231 340.983 84.9552 341.494 84.4841C342.034 83.9483 342.619 83.394 343.251 82.8214C343.911 82.184 344.566 81.6021 345.217 81.0758C345.867 80.5495 346.359 80.1663 346.693 79.9263C347.065 79.5105 347.434 79.0159 347.798 78.4427C348.162 77.8694 348.512 77.3285 348.848 76.8199C349.23 76.293 349.584 75.8308 349.91 75.4334C350.218 74.9896 350.511 74.7125 350.789 74.602L352.595 73.8839C352.641 73.8655 352.753 73.7408 352.93 73.5097C353.004 73.4265 353.093 73.311 353.195 73.1631C353.362 73.0431 353.775 72.7986 354.433 72.4298C355.138 72.0425 355.606 71.8028 355.837 71.7107L356.278 70.1699C356.529 69.8557 356.799 69.5878 357.087 69.3662C357.356 69.0983 357.603 68.8396 357.826 68.5901C358.05 68.3406 358.208 68.0631 358.303 67.7578C358.426 67.3876 358.466 66.9432 358.423 66.4246C358.366 65.3225 358.175 64.22 357.85 63.1173C357.553 61.9498 357.214 60.8795 356.833 59.9063L356.234 58.3769C356.198 58.2842 355.959 58.0846 355.518 57.7779C355.077 57.4713 354.82 57.2253 354.747 57.0399L352.525 53.8261L350.262 52.5567L348.926 51.4007C348.705 51.3817 348.429 51.2236 348.098 50.9265C347.768 50.6294 347.534 50.3742 347.397 50.1609C347.196 49.9197 346.748 49.8029 346.056 49.8105C345.345 49.7718 344.583 49.8071 343.769 49.9163C342.938 49.9791 342.133 50.1115 341.356 50.3134C340.607 50.4506 340.094 50.5744 339.816 50.6849C339.723 50.7217 339.353 50.869 338.704 51.1268C338.084 51.3198 337.566 51.4991 337.149 51.6649C336.732 51.8306 336.172 52.1071 335.467 52.4943C334.791 52.8169 334.174 53.2229 333.616 53.7124C333.041 54.1555 332.571 54.6637 332.207 55.237C331.889 55.7919 331.848 56.3705 332.084 56.973L332.329 57.5987C332.411 57.6729 332.586 57.8447 332.852 58.1138C333.099 58.3367 333.365 58.6058 333.65 58.9213C333.916 59.1905 334.158 59.4689 334.378 59.7565C334.626 59.9793 334.768 60.137 334.804 60.2297C334.877 60.4151 334.916 60.7208 334.923 61.1468C334.957 61.508 335.001 61.8924 335.053 62.3C335.31 63.9119 335.315 65.2222 335.068 66.231C334.82 67.2398 334.24 68.3543 333.327 69.5745L332.738 70.5316C332.607 70.7442 332.5 70.9477 332.415 71.142L327.137 73.241C326.72 73.4067 326.309 73.3826 325.904 73.1686C325.499 72.9547 325.123 72.676 324.774 72.3326C324.407 71.9428 324.096 71.5577 323.84 71.1775C323.566 70.7509 323.383 70.4217 323.293 70.19C323.184 69.9119 323.085 69.5228 322.996 69.0225C322.907 68.5222 322.873 68.0267 322.895 67.536C322.899 66.9989 322.921 66.5082 322.961 66.0638C323.029 65.5546 323.134 65.1381 323.274 64.8144C323.286 64.4347 323.339 64.0922 323.434 63.7868C323.436 63.5183 323.456 63.2961 323.494 63.1202C323.578 62.926 323.635 62.7965 323.663 62.7317L324.338 61.1776C325.103 60.1237 325.696 59.1111 326.119 58.1397C326.541 57.1684 327.061 56.1047 327.678 54.9486L331.288 49.8176C331.588 49.2164 331.886 48.7495 332.184 48.4168C332.51 48.0194 332.854 47.6683 333.217 47.3635C333.579 47.0588 333.95 46.7772 334.331 46.5188C334.758 46.242 335.227 45.8681 335.738 45.397C335.784 45.3786 335.882 45.2862 336.031 45.1199C336.226 44.9351 336.421 44.7504 336.616 44.5656C336.793 44.3345 336.979 44.1266 337.175 43.9419C337.37 43.7571 337.505 43.6232 337.579 43.54C337.793 43.4016 338.196 43.134 338.79 42.7372C339.43 42.322 340.093 41.8975 340.78 41.4639C341.513 41.0119 342.208 40.6014 342.866 40.2326C343.525 39.8637 343.993 39.624 344.27 39.5136C344.502 39.4215 344.747 39.4313 345.004 39.543C345.29 39.59 345.48 39.5951 345.572 39.5583C345.711 39.503 345.929 39.4433 346.225 39.3792C346.503 39.2687 346.789 39.1814 347.085 39.1173C347.428 39.0348 347.724 38.9706 347.973 38.9249C348.251 38.8145 348.445 38.764 348.556 38.7735C348.87 38.7557 349.295 38.7474 349.831 38.7487C350.348 38.7036 350.875 38.6817 351.411 38.6829C351.946 38.6842 352.427 38.6807 352.851 38.6724C353.276 38.6642 353.544 38.6648 353.655 38.6743C353.719 38.7022 353.881 38.7721 354.138 38.8838C354.396 38.9955 354.695 39.1444 355.036 39.3304C355.404 39.4516 355.75 39.5821 356.072 39.7217C356.394 39.8614 356.629 39.9823 356.776 40.0845C357.576 40.6235 358.348 41.093 359.094 41.4929C359.885 41.8744 360.551 42.4131 361.091 43.1089C361.504 43.4802 361.866 43.9256 362.177 44.4449C362.515 44.8994 362.831 45.3632 363.123 45.8361C363.461 46.2907 363.814 46.7128 364.181 47.1026C364.547 47.4924 365.012 47.7898 365.574 47.9949L367.262 52.3048C368.46 55.3635 369.524 58.4219 370.454 61.48C371.412 64.4733 372.453 67.5408 373.577 70.6827C373.573 71.2198 373.593 71.7477 373.635 72.2663C373.66 72.7387 373.781 73.2529 373.999 73.809C374.162 74.2261 374.39 74.6711 374.682 75.1441C375.021 75.5987 375.235 75.9418 375.326 76.1735L375.218 77.7429C375.245 77.9466 375.294 78.1412 375.367 78.3266L375.666 79.0913C375.938 79.7864 376.252 80.5187 376.607 81.2882C376.962 82.0576 377.386 82.7994 377.88 83.5136C378.374 84.2278 378.919 84.868 379.515 85.4343C380.158 85.9822 380.894 86.3589 381.724 86.5646C382.028 86.6579 382.438 86.8163 382.954 87.0397C383.497 87.1984 383.862 87.241 384.047 87.1673L384.325 87.0568C384.788 86.8727 385.293 86.5915 385.841 86.2131C386.37 85.7883 386.923 85.3544 387.498 84.9113C388.056 84.4218 388.622 83.9555 389.198 83.5123C389.82 83.0507 390.455 82.6911 391.103 82.4333C391.983 82.0835 392.532 82.1866 392.75 82.7428C393.331 84.2258 393.592 85.7821 393.535 87.4118C393.524 89.023 393.227 90.5873 392.644 92.1046C392.042 93.5756 391.207 94.9256 390.136 96.1547C389.047 97.3375 387.716 98.2419 386.141 98.8679C384.567 99.4939 383.012 100.032 381.475 100.482C379.921 100.886 378.137 101.113 376.123 101.164L375.501 101.01C375.372 100.954 375.032 100.768 374.48 100.452C373.956 100.071 373.377 99.6854 372.742 99.2949C372.154 98.8861 371.607 98.5144 371.101 98.1799C370.578 97.799 370.265 97.5482 370.164 97.4276L367.926 96.6306L366.814 97.0725ZM347.033 92.8869C347.323 93.6284 347.775 94.4397 348.388 95.3208C349.047 96.1836 349.803 96.954 350.658 97.632C351.494 98.2636 352.4 98.7334 353.377 99.0413C354.354 99.3491 355.305 99.3189 356.231 98.9507C356.417 98.8771 356.57 98.7894 356.69 98.6879C356.811 98.5863 357.132 98.2444 357.653 97.6622L363.756 94.5928C363.859 94.4449 363.994 94.1767 364.163 93.7882C364.36 93.3349 364.534 92.8908 364.685 92.4559C364.882 92.0026 365.042 91.5909 365.165 91.2208C365.334 90.8322 365.437 90.5501 365.475 90.3742C365.522 90.3558 365.537 90.1891 365.52 89.8742C365.55 89.541 365.576 89.1289 365.598 88.6382C365.62 88.1474 365.61 87.6427 365.567 87.1241C365.571 86.587 365.569 86.1054 365.563 85.6795C365.565 85.4109 365.498 85.0357 365.363 84.5539C365.274 84.0536 365.221 83.7803 365.202 83.734C364.957 83.2426 364.711 82.7512 364.465 82.2598C364.219 81.7685 363.996 81.2679 363.796 80.7581C363.615 80.2947 363.474 79.8684 363.375 79.4792C363.258 79.0437 363.141 78.6082 363.024 78.1727L362.912 76.45L362.421 75.1988C362.113 74.4109 361.577 73.7938 360.813 73.3476C360.05 72.9013 359.182 72.8715 358.21 73.2581C357.422 73.5711 356.824 74.0235 356.413 74.6152C356.031 75.1421 355.592 75.7986 355.097 76.5845C354.92 76.8156 354.557 77.2546 354.008 77.9016C353.44 78.5022 352.835 79.1443 352.193 79.8281C351.58 80.4471 350.989 81.0569 350.421 81.6575C349.9 82.2396 349.542 82.6231 349.347 82.8079L348.299 84.0278C348.207 84.0646 348.04 84.1846 347.798 84.3877C347.557 84.5909 347.445 84.7157 347.463 84.762L347.199 86.9561L346.185 89.2873C346.153 89.8891 346.25 90.5468 346.476 91.2604C346.684 91.9276 346.87 92.4698 347.033 92.8869Z" fill="#FADC71"/>
<path d="M183.26 255.722C189.311 253.316 193.548 249.821 195.972 245.237C198.501 240.612 198.681 235.533 196.514 229.999C194.756 225.51 192.116 222.155 188.594 219.936C185.073 217.716 181.202 216.299 176.983 215.684C172.868 215.028 167.378 214.556 160.514 214.269C152.652 213.896 146.196 213.265 141.147 212.377C136.201 211.448 131.502 209.455 127.05 206.399C122.598 203.343 119.145 198.682 116.692 192.418C114.606 187.094 113.916 181.637 114.62 176.047C115.388 170.312 117.775 165.019 121.783 160.168C125.79 155.316 131.497 151.418 138.904 148.473C145.684 145.777 152.123 144.363 158.22 144.231C164.38 143.954 169.616 145.009 173.927 147.397C178.302 149.64 181.368 153.006 183.127 157.495C185.212 162.82 185.313 167.847 183.428 172.579C181.648 177.268 178.359 180.567 173.56 182.475C171.37 183.346 170.029 183.155 169.538 181.902C169.416 181.589 169.485 180.536 169.747 178.742C170.114 176.907 170.262 174.978 170.193 172.954C170.187 170.785 169.673 168.395 168.651 165.785C166.729 160.878 163.35 157.636 158.513 156.061C153.676 154.485 148.284 154.879 142.338 157.243C136.184 159.69 132.133 163.352 130.185 168.229C128.196 173.002 128.183 177.894 130.146 182.905C131.659 186.768 134.063 189.674 137.357 191.622C140.652 193.569 144.284 194.84 148.254 195.433C152.224 196.027 157.589 196.488 164.348 196.817C172.419 197.107 179.125 197.759 184.465 198.773C189.868 199.641 194.962 201.718 199.745 205.004C204.488 208.186 208.147 213.066 210.723 219.643C214.363 228.935 214.136 237.592 210.045 245.614C206.057 253.595 198.274 259.887 186.695 264.492C179.184 267.478 172.099 269.089 165.44 269.323C158.739 269.454 152.984 268.303 148.174 265.872C143.427 263.295 140.093 259.553 138.171 254.646C136.085 249.322 136.037 244.273 138.026 239.5C140.119 234.686 143.721 231.263 148.832 229.23C149.98 228.774 150.896 228.651 151.581 228.861C152.226 228.967 152.65 229.281 152.854 229.803C152.977 230.116 152.855 231.19 152.489 233.025C152.082 234.756 151.881 236.706 151.887 238.876C151.893 241.045 152.407 243.435 153.429 246.045C155.596 251.579 159.441 255.238 164.963 257.024C170.485 258.811 176.584 258.376 183.26 255.722Z" fill="#FADC71"/>
<path d="M256.851 233.66C253.888 234.838 250.961 235.359 248.071 235.223C245.163 235.04 242.405 233.941 239.796 231.925L235.031 229.803C234.894 229.59 234.559 229.214 234.028 228.675C233.496 228.137 232.922 227.562 232.308 226.949C231.693 226.336 231.129 225.784 230.615 225.292C230.101 224.8 229.808 224.461 229.736 224.276L228.265 220.522C227.955 220.003 227.602 219.581 227.207 219.256C226.841 218.866 226.437 218.518 225.996 218.211C225.582 217.84 225.202 217.482 224.853 217.139C224.486 216.749 224.194 216.276 223.976 215.72L221.252 206.921C221.089 206.504 220.824 206.1 220.457 205.711C220.137 205.302 219.877 204.843 219.677 204.334C219.423 203.685 219.275 203.101 219.232 202.582C219.236 202.045 219.24 201.508 219.243 200.971C219.247 200.434 219.218 199.883 219.158 199.318C219.125 198.688 218.945 197.956 218.619 197.122L221.03 188.932L220.136 188.083C220.202 187.842 220.282 187.569 220.377 187.264C220.443 187.023 220.5 186.76 220.549 186.473C220.643 186.167 220.714 185.871 220.762 185.584C222.169 181.115 224.289 177.166 227.12 173.737C229.933 170.261 233.266 167.088 237.118 164.217L238.232 163.373C240.733 162.378 243.324 161.616 246.006 161.085C248.734 160.536 251.396 160.227 253.992 160.159C254.625 160.818 255.334 161.125 256.119 161.081C256.933 160.972 257.663 160.788 258.312 160.53C259.019 161.106 259.667 161.599 260.255 162.007C260.843 162.416 261.385 162.843 261.881 163.289C262.376 163.735 262.821 164.254 263.214 164.848C263.635 165.377 264.009 166.058 264.336 166.892C264.989 168.561 264.964 170.204 264.26 171.823C263.556 173.442 262.139 174.675 260.009 175.522C259.798 175.392 259.522 175.234 259.181 175.048C258.823 174.816 258.45 174.616 258.063 174.448C257.658 174.234 257.295 174.057 256.973 173.918C256.65 173.778 256.411 173.713 256.254 173.722C256.171 173.647 255.912 173.67 255.477 173.789C255.024 173.862 254.775 173.908 254.728 173.926C253.417 173.858 252.252 173.411 251.233 172.585C250.241 171.693 249.213 170.844 248.147 170.035C247.109 169.163 245.964 168.493 244.711 168.027C243.505 167.543 241.999 167.66 240.193 168.378C238.85 168.912 237.714 169.631 236.784 170.537C235.836 171.396 234.998 172.398 234.269 173.545C233.523 174.645 232.877 175.866 232.332 177.208C231.816 178.484 231.294 179.817 230.767 181.204C230.727 181.649 230.58 182.162 230.327 182.745C230.055 183.282 229.923 183.763 229.929 184.189L231.045 187.039L230.817 188.094C230.656 189.872 230.701 191.488 230.949 192.942C231.198 194.397 231.658 195.981 232.33 197.696C232.438 197.974 232.575 198.322 232.738 198.739C232.883 199.109 233.061 199.494 233.27 199.893C233.462 200.245 233.644 200.574 233.818 200.88C233.973 201.14 234.12 201.242 234.259 201.187C234.404 201.558 234.585 202.021 234.803 202.577C235.049 203.069 235.295 203.56 235.541 204.051C235.787 204.543 236.006 204.965 236.197 205.317C236.389 205.669 236.485 205.845 236.485 205.845L237.491 206.57L238.253 208.516C238.671 209.582 239.08 210.491 239.481 211.242C239.929 211.974 240.414 212.665 240.936 213.315C241.486 213.9 242.068 214.498 242.683 215.111C243.325 215.659 244.027 216.29 244.789 217.005C244.825 217.098 245.138 217.348 245.726 217.757C246.296 218.12 246.916 218.542 247.587 219.026C248.24 219.462 248.86 219.885 249.449 220.294C250.019 220.656 250.377 220.889 250.524 220.991C251.058 221.261 251.644 221.322 252.283 221.176C252.921 221.029 253.457 221.03 253.89 221.179C254.848 221.441 255.641 221.688 256.267 221.921C256.922 222.089 257.535 222.22 258.107 222.314C258.725 222.39 259.339 222.387 259.95 222.305C260.56 222.223 261.328 221.998 262.254 221.63C264.384 220.783 266.388 219.477 268.266 217.713C270.143 215.948 271.662 214.086 272.82 212.126C273.082 211.7 273.339 211.196 273.593 210.613C273.874 209.966 274.165 209.341 274.465 208.74C274.764 208.139 275.082 207.584 275.418 207.076C275.8 206.549 276.223 206.193 276.686 206.009C277.52 205.677 278.139 205.619 278.544 205.833C278.995 206.028 279.375 206.52 279.683 207.308L280.01 208.142C280.257 211.097 279.897 213.865 278.928 216.446C278.005 219.009 276.677 221.358 274.945 223.493C273.194 225.582 271.163 227.433 268.852 229.049C266.541 230.664 264.159 231.959 261.705 232.935L259.552 233.791L257.893 233.246L256.851 233.66Z" fill="#FADC71"/>
<path d="M293.389 214.632C293.244 214.262 293.376 213.915 293.784 213.591C294.221 213.204 294.51 212.848 294.65 212.524C294.942 211.765 295.367 211.141 295.924 210.652C296.528 210.144 296.941 209.765 297.165 209.516C297.445 209.137 297.59 208.757 297.602 208.378C297.596 207.952 297.811 207.545 298.248 207.157L299.697 205.938C299.975 205.827 300.125 205.527 300.146 205.036C300.168 204.545 300.193 204.267 300.222 204.203C300.084 203.989 299.907 203.605 299.689 203.049C299.471 202.492 299.263 201.959 299.063 201.45C298.809 200.801 298.582 200.222 298.382 199.712C298.164 199.156 298.006 198.683 297.907 198.294L297.507 196.043L293.314 185.337C293.278 185.245 293.219 185.027 293.139 184.684C293.058 184.341 292.968 183.975 292.869 183.586C292.77 183.197 292.68 182.831 292.6 182.488C292.519 182.145 292.483 181.918 292.493 181.807L292.303 181.321C292.148 181.061 291.938 180.662 291.674 180.125C291.392 179.54 291.118 178.98 290.854 178.442C290.572 177.858 290.317 177.343 290.089 176.898C289.861 176.453 289.729 176.184 289.693 176.092C289.592 175.971 289.455 175.758 289.282 175.452C289.108 175.146 288.926 174.817 288.735 174.464C288.543 174.112 288.361 173.783 288.187 173.477C288.06 173.152 287.969 172.921 287.915 172.782C287.522 172.188 287.045 171.654 286.485 171.181C285.925 170.707 285.337 170.298 284.72 169.954C284.086 169.564 283.437 169.206 282.775 168.88C282.094 168.508 281.445 168.15 280.829 167.806C280.782 167.825 280.557 167.727 280.152 167.513C279.729 167.253 279.499 167.076 279.463 166.983L273.867 164.79L275.867 160.058C275.942 159.974 276.091 159.808 276.314 159.559C276.584 159.291 276.853 159.023 277.123 158.755C277.421 158.422 277.705 158.122 277.974 157.854C278.29 157.568 278.532 157.364 278.699 157.245C278.755 157.115 278.913 156.972 279.173 156.815C279.461 156.593 279.758 156.395 280.064 156.22C280.416 156.026 280.731 155.874 281.009 155.764C281.315 155.588 281.514 155.482 281.607 155.446C282.377 154.818 283.019 154.134 283.532 153.394C284.074 152.59 284.601 151.818 285.114 151.078C285.609 150.292 286.131 149.576 286.68 148.929C287.276 148.264 288.037 147.747 288.963 147.379L290.074 146.937C290.139 146.965 290.493 147.118 291.138 147.398C291.764 147.631 292.229 147.794 292.534 147.887C293.057 148.268 293.474 148.852 293.782 149.64C294.073 150.382 294.386 151.114 294.723 151.837C295.041 152.514 295.44 153.052 295.917 153.451C296.394 153.85 297.096 153.866 298.022 153.498C298.161 153.442 298.3 153.387 298.439 153.332C298.624 153.258 298.699 153.175 298.663 153.082C298.83 152.962 299.048 152.768 299.318 152.501C299.569 152.186 299.812 151.849 300.045 151.488C300.325 151.109 300.558 150.749 300.745 150.406C300.979 150.046 301.137 149.768 301.222 149.574L303.226 146.287C303.282 146.157 303.501 145.829 303.883 145.302C304.248 144.729 304.486 144.313 304.599 144.054C304.645 144.035 304.83 143.962 305.154 143.833C305.46 143.658 305.775 143.505 306.099 143.377C306.452 143.183 306.781 142.999 307.087 142.823C307.393 142.648 307.606 142.51 307.727 142.408C307.773 142.39 307.894 142.288 308.089 142.103C308.331 141.9 308.572 141.697 308.814 141.494C309.102 141.272 309.343 141.069 309.538 140.884C309.734 140.7 309.854 140.598 309.901 140.58L310.665 140.276C311.73 139.852 312.713 139.836 313.616 140.227C314.565 140.6 315.471 141.07 316.335 141.636C316.823 141.925 317.244 142.453 317.599 143.223C317.982 143.928 318.362 144.419 318.738 144.698C318.793 144.837 318.917 144.948 319.11 145.032L319.497 145.2C320.368 147.424 320.825 149.546 320.866 151.565C320.936 153.519 320.438 155.323 319.374 156.979C318.994 157.237 318.544 157.523 318.024 157.837C317.487 158.104 317.033 158.311 316.662 158.458C315.69 158.845 314.954 159.084 314.455 159.176C313.937 159.221 313.517 159.173 313.195 159.034C312.873 158.894 312.547 158.676 312.216 158.379C311.932 158.063 311.505 157.724 310.935 157.362C310.447 157.073 309.927 156.906 309.373 156.858C308.847 156.746 308.358 156.726 307.905 156.799C307.434 156.826 307.004 156.889 306.615 156.99C306.273 157.073 306.055 157.133 305.963 157.169L302.785 157.87L300.557 159.56L300.159 161.003C299.946 161.142 299.713 161.502 299.459 162.085C299.188 162.622 298.943 163.228 298.726 163.903C298.537 164.514 298.413 165.153 298.353 165.819C298.275 166.439 298.299 166.912 298.426 167.236L300.039 172.379L301.149 174.188L302.565 177.803C302.601 177.895 302.733 178.164 302.961 178.609C303.217 178.989 303.437 179.277 303.62 179.472L305.584 185.922L306.996 188.092C307.123 188.416 307.158 188.777 307.099 189.176C307.088 189.555 307.182 190 307.381 190.51L308.793 192.68L309.314 195.445C309.332 195.492 309.36 195.561 309.396 195.654C309.432 195.746 309.497 195.774 309.589 195.738C309.745 195.997 310.038 196.336 310.469 196.754C310.946 197.153 311.433 197.575 311.929 198.021C312.471 198.448 312.957 198.871 313.388 199.289C313.848 199.641 314.169 199.915 314.352 200.11C314.371 200.157 314.453 200.231 314.6 200.333C314.747 200.435 314.89 200.459 315.029 200.404C315.537 200.47 316.048 200.614 316.564 200.838C317.126 201.043 317.721 201.128 318.349 201.092C318.728 201.102 319.199 201.075 319.763 201.012C320.309 200.902 320.886 200.806 321.497 200.724C322.153 200.624 322.795 200.556 323.424 200.52C324.098 200.466 324.745 200.477 325.363 200.553C325.786 200.813 326.213 201.152 326.644 201.57C327.122 201.969 327.478 202.47 327.714 203.072C327.914 203.582 327.967 203.99 327.872 204.295C327.824 204.582 327.683 204.906 327.45 205.267C327.245 205.562 326.818 205.839 326.17 206.097L324.029 207.189C323.278 207.595 322.578 207.927 321.93 208.184C321.328 208.424 320.819 208.626 320.402 208.792C320.031 208.939 319.597 209.059 319.097 209.15C318.626 209.177 318.136 209.291 317.626 209.494C316.33 210.01 315.166 210.66 314.136 211.444C313.123 212.275 312.015 212.93 310.811 213.409L307.277 213.609L303.24 216.419L302.06 216.889L300.815 216.58C300.722 216.617 300.459 216.695 300.024 216.815C299.571 216.888 298.932 217.034 298.109 217.255C297.924 217.328 297.702 217.309 297.444 217.198C297.287 217.206 297.028 217.229 296.668 217.265C296.354 217.283 295.809 217.259 295.034 217.192C294.464 216.829 294.088 216.417 293.906 215.953L293.389 214.632Z" fill="#FADC71"/>
<path d="M350.685 196.751C350.13 196.971 349.726 197.239 349.475 197.553C349.287 197.896 349.032 198.131 348.708 198.26C348.522 198.334 348.255 198.333 347.904 198.258C347.6 198.165 347.139 198.08 346.521 198.005C346.41 197.995 346.295 197.907 346.176 197.74C346.085 197.508 345.939 197.272 345.738 197.031C345.536 196.789 345.331 196.469 345.121 196.071C345.103 196.024 345.104 195.89 345.124 195.668C345.172 195.381 345.22 195.094 345.268 194.807C345.298 194.474 345.337 194.164 345.385 193.877C345.434 193.59 345.486 193.382 345.542 193.252L346.562 191.963L348.09 191.355C349.155 190.932 350.077 190.485 350.856 190.014C351.664 189.479 352.149 188.67 352.314 187.587C351.882 185.937 351.431 184.376 350.961 182.902C350.491 181.429 350.169 179.923 349.995 178.386L349.548 174.787L347.016 168.322L344.913 161.928L343.307 157.826C343.271 157.734 343.134 157.52 342.896 157.186C342.64 156.806 342.375 156.403 342.101 155.976C341.808 155.503 341.534 155.077 341.278 154.696C341.004 154.27 340.822 153.94 340.731 153.709L338.144 147.105C337.759 146.669 337.213 146.163 336.506 145.587C335.799 145.011 335.174 144.644 334.63 144.485L332.204 144.646C331.199 144.403 330.246 144.086 329.343 143.695C328.487 143.285 327.683 142.668 326.932 141.842C326.732 141.332 326.693 140.892 326.816 140.522C326.939 140.152 327.158 139.824 327.474 139.537C327.79 139.251 328.138 138.979 328.519 138.72C328.899 138.462 329.256 138.213 329.59 137.973L333.696 133.287C334.04 132.936 334.333 132.659 334.574 132.456C334.844 132.188 335.09 131.929 335.314 131.68C335.537 131.43 335.728 131.167 335.887 130.889C336.092 130.594 336.285 130.196 336.463 129.696L338.423 128.756C338.655 128.664 339.011 128.549 339.492 128.411C340.02 128.255 340.33 128.159 340.423 128.122C340.561 128.067 340.802 127.998 341.144 127.915C341.487 127.833 341.861 127.764 342.268 127.71C342.675 127.655 343.058 127.61 343.419 127.573C343.779 127.537 344.038 127.515 344.195 127.506C344.684 127.525 345.093 127.818 345.422 128.384C345.779 128.885 346.048 129.367 346.229 129.83L347.1 132.055L347.268 133.916C348.216 137.021 349.262 140.033 350.405 142.952C351.549 145.872 352.682 148.903 353.806 152.045L354.439 154.685C354.411 154.75 354.428 154.931 354.491 155.227C354.6 155.505 354.727 155.83 354.872 156.2C355.017 156.571 355.162 156.942 355.307 157.313C355.434 157.637 355.534 157.892 355.607 158.077C355.734 158.402 355.879 158.773 356.043 159.19C356.206 159.607 356.36 160.001 356.505 160.371C356.651 160.742 356.778 161.067 356.887 161.345C357.024 161.558 357.115 161.655 357.162 161.637C357.216 161.776 357.389 162.082 357.682 162.555C357.956 162.982 358.134 163.232 358.217 163.306L358.789 164.766C358.843 164.905 358.965 165.285 359.155 165.906C359.344 166.527 359.57 167.24 359.833 168.047C360.077 168.807 360.321 169.566 360.565 170.326C360.837 171.022 361.037 171.531 361.164 171.856C361.327 172.273 361.614 172.936 362.023 173.844C362.461 174.688 362.925 175.601 363.417 176.584C363.955 177.548 364.452 178.475 364.908 179.365C365.345 180.209 365.637 180.816 365.782 181.187C365.982 181.697 366.4 182.013 367.036 182.134C367.701 182.192 368.213 182.202 368.574 182.166C368.713 182.111 368.999 182.023 369.434 181.904C369.916 181.766 370.42 181.619 370.947 181.463C371.475 181.307 371.956 181.169 372.391 181.05C372.854 180.866 373.178 180.737 373.363 180.663C373.833 180.905 374.242 181.198 374.59 181.541C374.985 181.866 375.31 182.353 375.564 183.002C375.818 183.651 375.994 184.304 376.091 184.962C376.234 185.601 376.143 186.119 375.817 186.517C375.442 187.201 374.917 187.704 374.241 188.027C373.629 188.377 372.952 188.7 372.212 188.995L370.961 189.492L369.022 189.459L360.479 192.856C360.432 192.875 360.113 192.948 359.521 193.076C358.911 193.158 358.514 193.236 358.328 193.31L356.384 194.083L350.685 196.751ZM316.624 103.841L317.933 100.83L319.517 98.1115L319.64 96.3754C320.032 95.7374 320.567 95.2571 321.243 94.9346C321.901 94.5657 322.508 94.2708 323.064 94.0499L323.758 93.7737C323.823 93.8016 323.989 93.8159 324.257 93.8165C324.525 93.8171 324.793 93.8178 325.06 93.8184C325.328 93.819 325.573 93.8289 325.794 93.8479C326.044 93.8022 326.215 93.7609 326.308 93.7241C326.529 93.7431 326.843 93.7253 327.25 93.6707C327.685 93.5514 328.129 93.4552 328.582 93.3822C329.017 93.2628 329.429 93.1526 329.817 93.0517C330.188 92.9044 330.442 92.8031 330.581 92.7479C330.785 92.7206 331.102 92.9158 331.533 93.3335C331.964 93.7512 332.377 94.2569 332.77 94.8504C333.191 95.3793 333.566 95.9265 333.894 96.4921C334.251 96.993 334.466 97.3362 334.538 97.5215C334.992 98.6801 335.28 99.8244 335.401 100.954C335.551 102.02 335.317 103.13 334.699 104.287C334.671 104.351 334.56 104.476 334.364 104.661C334.197 104.781 334.016 104.933 333.821 105.118C333.607 105.256 333.403 105.418 333.208 105.603C333.041 105.723 332.957 105.783 332.957 105.783C332.947 105.894 332.895 106.102 332.801 106.407C332.688 106.666 332.561 106.958 332.421 107.282C332.262 107.559 332.103 107.836 331.944 108.114C331.767 108.345 331.664 108.493 331.636 108.558C331.485 108.992 331.141 109.344 330.604 109.611C330.112 109.86 329.635 110.076 329.172 110.26L326.463 111.337C325.954 111.54 325.505 111.692 325.116 111.793C324.71 111.847 324.082 111.749 323.234 111.497C321.993 110.651 320.835 109.88 319.759 109.183C318.684 108.486 317.855 107.396 317.274 105.913L316.624 103.841Z" fill="#FADC71"/>
<path d="M419.752 213.636L416.066 215.906L401.966 221.512C401.41 221.733 400.804 221.894 400.148 221.994C399.538 222.076 398.914 222.056 398.278 221.934C397.706 221.84 397.167 221.626 396.661 221.291C396.202 220.938 395.845 220.437 395.591 219.789C395.337 219.14 395.166 218.565 395.077 218.065C395.052 217.593 395.328 217.135 395.904 216.692L400.454 213.758C400.742 213.536 400.997 213.301 401.221 213.051C401.416 212.866 401.611 212.682 401.806 212.497C402.048 212.294 402.22 212.118 402.323 211.97C402.508 211.897 402.689 211.744 402.866 211.513C402.94 211.43 403.006 211.324 403.062 211.194C403.185 210.824 403.281 210.25 403.351 209.472C403.439 208.741 403.429 208.236 403.32 207.958C403.284 207.866 403.18 207.532 403.008 206.957C402.855 206.429 402.665 205.808 402.439 205.095C402.278 204.409 402.093 203.733 401.885 203.065C401.677 202.398 401.501 201.879 401.356 201.509L399.885 197.755C399.341 196.364 398.773 194.983 398.182 193.611C397.61 192.286 396.963 191.043 396.241 189.884L395.307 188.729L394.272 186.088L394.117 184.462L392.931 181.639C392.732 181.13 392.564 180.634 392.429 180.152C392.358 179.698 392.366 179.24 392.453 178.777C391.287 176.348 390.195 173.97 389.177 171.643C388.187 169.252 387.211 166.828 386.249 164.372L385.377 162.147L384.754 160.146C384.736 160.099 384.709 160.03 384.672 159.937C384.636 159.845 384.531 159.645 384.358 159.339C384.231 159.015 384.008 158.514 383.689 157.837C383.371 157.161 382.929 156.238 382.365 155.07C382.219 154.699 382.083 154.352 381.956 154.027C381.829 153.703 381.73 153.314 381.66 152.86L380.667 150.121C379.909 148.869 379.221 147.59 378.602 146.283C378.029 144.957 377.461 143.576 376.899 142.139C376.372 140.795 375.869 139.442 375.389 138.08C374.937 136.653 374.536 135.152 374.187 133.577L373.498 133.047C373.323 133.01 373.051 132.93 372.682 132.809C372.342 132.623 372.011 132.46 371.688 132.321C371.302 132.153 370.859 131.981 370.362 131.804C370.169 131.72 369.864 131.626 369.45 131.524C369.035 131.421 368.573 131.336 368.066 131.27C367.558 131.204 367.06 131.161 366.571 131.142C366.128 131.104 365.795 131.075 365.574 131.056C365.26 131.074 365.01 131.12 364.825 131.193C364.668 131.202 364.525 131.179 364.396 131.123C363.437 130.861 362.813 130.36 362.522 129.618C362.486 129.526 362.422 129.363 362.332 129.132C362.223 128.854 362.196 128.65 362.253 128.52C362.291 128.344 362.315 128.201 362.325 128.09C362.317 127.932 362.401 127.738 362.578 127.507L365.277 123.944C365.397 123.842 365.541 123.731 365.708 123.611C365.829 123.51 365.95 123.408 366.071 123.306C366.191 123.205 366.298 123.136 366.391 123.099L369.205 120.855L370.411 118.608C370.751 117.562 371.298 116.568 372.053 115.625C372.836 114.618 373.667 113.939 374.547 113.589C375.565 113.184 376.425 113.056 377.126 113.206C377.855 113.291 378.491 113.547 379.032 113.975C379.574 114.402 380.01 114.898 380.338 115.464C380.713 116.011 381.056 116.544 381.366 117.064C381.723 117.565 382.067 117.964 382.397 118.261C382.756 118.493 383.143 118.526 383.56 118.361L388.722 113.094L389.926 111.25C390.496 110.381 391.119 109.651 391.798 109.06C392.522 108.45 393.274 107.91 394.053 107.44C394.832 106.969 395.638 106.568 396.472 106.237C397.333 105.841 398.209 105.412 399.099 104.951L400.66 103.607C401.632 103.221 402.47 102.968 403.173 102.849C403.903 102.666 404.592 102.58 405.238 102.59C405.885 102.601 406.526 102.667 407.163 102.789C407.781 102.865 408.519 102.973 409.377 103.114C410.827 103.127 412.305 103.074 413.811 102.958C415.346 102.776 416.878 102.863 418.409 103.218L427.757 107.616L428.501 108.284C428.684 108.479 428.858 108.651 429.023 108.799C429.235 108.93 429.359 109.041 429.395 109.134L433.325 113.838L435.721 115.858C435.83 116.136 436.009 116.386 436.256 116.609L436.752 117.055L437.514 119.001C437.651 119.214 437.779 119.404 437.898 119.571C438.017 119.738 438.127 119.882 438.228 120.003C438.329 120.123 438.397 120.23 438.433 120.323L439.395 121.547C439.677 122.131 439.95 122.692 440.214 123.23C440.46 123.721 440.706 124.213 440.952 124.704C441.18 125.149 441.367 125.557 441.512 125.928C441.868 129.16 442.068 132.268 442.112 135.25C442.156 138.231 442.006 141.264 441.662 144.347L441.232 148.374L441.263 149.888C441.072 150.767 440.739 151.623 440.262 152.455C439.813 153.223 439.286 153.995 438.681 154.771C438.075 155.548 437.46 156.301 436.836 157.031C436.194 157.715 435.617 158.427 435.104 159.166L433.535 161.718C432.937 162.652 432.202 163.373 431.331 163.88C430.459 164.387 429.491 164.853 428.426 165.276L425.3 166.519C424.559 166.814 423.865 167.09 423.217 167.348C422.615 167.587 421.99 167.836 421.341 168.093C420.675 168.305 419.962 168.535 419.203 168.783C418.49 169.013 417.676 169.256 416.76 169.513L414.818 169.884L413.773 170.701L408.355 172.855C407.748 173.9 407.376 174.932 407.24 175.95C407.122 177.015 407.137 178.08 407.287 179.145C407.483 180.192 407.766 181.257 408.138 182.342C408.509 183.426 408.912 184.524 409.348 185.637L411.907 192.171C412.052 192.542 412.284 193.066 412.603 193.742C412.921 194.419 413.24 195.096 413.559 195.773C413.942 196.477 414.265 197.098 414.529 197.636C414.793 198.174 414.944 198.489 414.98 198.582L417.607 201.394L418.26 203.062L420.482 206.276C420.591 206.554 420.817 206.652 421.159 206.569C421.501 206.487 421.834 206.381 422.158 206.252L423.794 204.075L424.281 203.882L425.652 203.899L429.472 202.38C429.981 202.177 430.481 202.086 430.97 202.106C431.506 202.107 432.151 202.252 432.907 202.541C433.654 202.672 434.174 202.84 434.469 203.045C434.781 203.295 435.064 203.745 435.318 204.394L435.66 205.061C435.95 205.803 435.857 206.59 435.38 207.422C434.922 208.301 434.248 208.971 433.358 209.432L427.352 212.543C426.28 212.54 425.163 212.556 423.999 212.59C422.881 212.606 421.906 212.78 421.072 213.111L419.752 213.636ZM397.426 156.633C397.68 157.282 397.903 157.783 398.095 158.135C398.268 158.441 398.616 158.919 399.138 159.568C399.376 159.902 399.71 160.278 400.141 160.696C400.619 161.095 401.064 161.48 401.477 161.852C401.955 162.251 402.473 162.688 403.033 163.161C403.07 163.254 403.24 163.347 403.544 163.44C403.895 163.515 404.268 163.581 404.665 163.637C405.062 163.694 405.426 163.736 405.758 163.765C406.137 163.775 406.373 163.762 406.465 163.725L409.381 164.815L412.694 164.462L416.306 163.025L417.275 163.042C418.248 162.655 419.091 162.212 419.806 161.714C420.502 161.169 421.12 160.629 421.66 160.093C422.227 159.493 422.739 158.887 423.196 158.277C423.653 157.667 424.119 157.08 424.594 156.516C424.996 155.767 425.471 155.204 426.018 154.825C426.594 154.382 427.088 153.73 427.5 152.87C427.603 152.722 427.687 152.528 427.754 152.287C427.866 152.028 427.979 151.769 428.091 151.51L428.375 150.594L427.116 146.355L427.179 141.187L426.682 138.894L426.029 137.226L425.843 134.086L425.026 132.001C423.909 130.517 423.078 129.214 422.532 128.092C421.967 126.924 421.383 125.844 420.781 124.851C420.561 124.564 420.345 124.355 420.134 124.225C419.969 124.076 419.78 123.937 419.569 123.807C419.357 123.677 419.137 123.523 418.907 123.347C418.706 123.106 418.445 122.781 418.124 122.373C417.904 122.085 417.681 121.719 417.453 121.274C417.207 120.782 416.938 120.3 416.646 119.827C416.4 119.336 416.139 118.877 415.865 118.45C415.591 118.024 415.289 117.662 414.959 117.365C414.783 117.327 414.433 117.252 413.907 117.14C413.41 116.963 412.88 116.772 412.318 116.567C411.784 116.297 411.269 116.073 410.771 115.896C410.302 115.655 409.994 115.482 409.847 115.38L408.36 114.043C408.323 113.951 408.176 113.848 407.918 113.737C407.642 113.579 407.352 113.453 407.048 113.36C406.726 113.22 406.39 113.113 406.039 113.038C405.671 112.917 405.399 112.837 405.223 112.8L404.254 112.784L400.781 114.164L398.189 114.311L397.009 114.781C395.203 115.499 393.794 116.273 392.781 117.104C391.769 117.935 390.728 118.831 389.659 119.792L387.803 121.815C387.32 122.222 386.98 122.652 386.783 123.105C386.632 123.54 386.546 124.003 386.524 124.493C386.502 124.984 386.521 125.512 386.582 126.077C386.625 126.596 386.662 127.17 386.695 127.8L386.658 131.189C386.857 131.699 387.094 132.167 387.368 132.593C387.671 132.955 387.922 133.391 388.121 133.901L389.108 137.445C389.743 139.067 390.472 140.518 391.295 141.798C392.145 143.013 393.116 144.261 394.206 145.541L394.777 147.001L395.544 150.392L396.687 153.312L396.8 155.035L397.426 156.633Z" fill="#FADC71"/>
<path d="M458.794 122.912L455.654 116.126L453.24 108.731L452.423 106.646C452.378 106.395 452.339 106.09 452.304 105.729C452.27 105.367 452.207 105.071 452.117 104.839C451.59 103.495 450.846 102.211 449.885 100.986C448.906 99.7153 448.037 98.4539 447.279 97.202C446.689 97.0617 445.927 97.097 444.993 97.3078C444.105 97.5002 443.208 97.6694 442.301 97.8154C441.377 97.9151 440.509 97.8853 439.698 97.726C438.932 97.5483 438.377 97.0191 438.032 96.1386C437.651 95.1654 437.694 94.3182 438.161 93.5969C438.609 92.8294 439.21 92.1085 439.963 91.4343C440.744 90.6953 441.543 90.0026 442.36 89.3563C443.223 88.6916 443.847 87.9615 444.231 87.166C444.634 86.4169 445.06 85.5243 445.51 84.4882C445.961 83.4521 446.267 82.661 446.427 82.1151C446.507 81.2263 446.63 80.1061 446.797 78.7545C447.009 77.3844 447.287 76.0423 447.628 74.7282C447.952 73.3677 448.385 72.151 448.928 71.0781C449.453 69.9588 450.132 69.2335 450.965 68.902C451.521 68.6811 452.024 68.6684 452.476 68.8639C452.955 68.9947 453.378 69.2549 453.745 69.6447C454.14 69.9698 454.483 70.3688 454.776 70.8417C455.068 71.3147 455.328 71.7737 455.556 72.2187L458.714 80.2825L459.252 80.631L462.516 79.333C463.674 78.8727 464.712 78.3797 465.63 77.854C466.529 77.282 467.36 76.7375 468.121 76.2208C468.91 75.6392 469.671 75.1224 470.403 74.6704C471.164 74.1536 472.008 73.7111 472.934 73.3428C474.23 72.8273 475.509 72.8812 476.77 73.5046C478.031 74.128 478.925 75.1117 479.451 76.4556C479.869 77.5215 480.028 78.4757 479.93 79.3182C479.878 80.1422 479.61 80.8917 479.125 81.5665C478.64 82.2414 477.994 82.8464 477.187 83.3816C476.362 83.8705 475.416 84.3267 474.351 84.7501L469.631 86.2254L466.294 87.9538L462.824 88.9319C462.176 89.1897 461.692 89.7303 461.372 90.5537C461.081 91.3124 461.035 91.9466 461.234 92.4564L463.902 97.4215C464.156 98.0703 464.308 98.7328 464.359 99.4089C464.41 100.085 464.446 100.794 464.469 101.534C464.473 102.229 464.51 102.937 464.579 103.66C464.648 104.382 464.818 105.091 465.091 105.786L465.581 107.038L469.364 114.853C469.334 115.186 469.35 115.501 469.413 115.797C469.522 116.076 469.658 116.423 469.821 116.84C469.949 117.165 470.113 117.447 470.314 117.689C470.516 117.93 470.662 118.166 470.753 118.398C471.418 119.687 472.005 120.98 472.513 122.278C472.967 123.436 473.356 124.567 473.681 125.67C474.006 126.772 474.284 127.894 474.517 129.033C474.581 129.061 474.728 129.163 474.958 129.34C475.169 129.47 475.399 129.646 475.647 129.869C475.923 130.027 476.185 130.218 476.433 130.44C476.662 130.617 476.833 130.71 476.943 130.719C477.532 131.128 478.112 131.38 478.684 131.474C479.256 131.568 479.818 131.638 480.372 131.686C480.954 131.669 481.545 131.675 482.145 131.704C482.792 131.715 483.46 131.851 484.151 132.111L486.791 131.062C487.856 130.639 488.829 130.118 489.711 129.499C490.592 128.881 491.428 128.281 492.217 127.699C493.034 127.053 493.814 126.448 494.557 125.885C495.346 125.304 496.203 124.829 497.129 124.46C497.685 124.24 498.211 124.352 498.706 124.798C499.202 125.243 499.55 125.721 499.749 126.231C499.858 126.509 499.926 126.75 499.952 126.953C500.006 127.093 500.015 127.25 499.976 127.426C499.938 127.602 499.863 127.819 499.75 128.078C499.684 128.319 499.599 128.647 499.494 129.064L499.066 130.841C498.964 130.989 498.823 131.312 498.644 131.812C498.511 132.293 498.351 132.839 498.162 133.45C497.955 134.014 497.747 134.579 497.54 135.143C497.315 135.661 497.146 136.05 497.034 136.309C496.77 137.003 496.266 137.765 495.522 138.597C494.777 139.429 493.959 140.209 493.067 140.939C492.194 141.715 491.307 142.389 490.407 142.961C489.554 143.514 488.849 143.902 488.294 144.122L478.695 145.85C477.817 145.931 476.801 145.934 475.647 145.857C474.494 145.78 473.336 145.625 472.173 145.39C471.04 145.091 469.971 144.686 468.968 144.174C468.011 143.644 467.258 142.953 466.71 142.1L464.832 137.303C463.983 135.819 463.124 134.447 462.256 133.185C461.415 131.859 460.695 130.431 460.096 128.902L458.794 122.912Z" fill="#FADC71"/>
</g>
<defs>
<filter id="filter0_d_98_6" x="0" y="0" width="540" height="316" filterUnits="userSpaceOnUse" color-interpolation-filters="sRGB">
<feFlood flood-opacity="0" result="BackgroundImageFix"/>
<feColorMatrix in="SourceAlpha" type="matrix" values="0 0 0 0 0 0 0 0 0 0 0 0 0 0 0 0 0 0 127 0" result="hardAlpha"/>
<feOffset dy="4"/>
<feGaussianBlur stdDeviation="2"/>
<feComposite in2="hardAlpha" operator="out"/>
<feColorMatrix type="matrix" values="0 0 0 0 0 0 0 0 0 0 0 0 0 0 0 0 0 0 0.25 0"/>
<feBlend mode="normal" in2="BackgroundImageFix" result="effect1_dropShadow_98_6"/>
<feBlend mode="normal" in="SourceGraphic" in2="effect1_dropShadow_98_6" result="shape"/>
</filter>
</defs>
</svg>
